<svg xmlns="http://www.w3.org/2000/svg" viewBox="0 0 512 512" width="512" height="512">
  <rect width="512" height="512" rx="96" fill="#2575ba"/>
  <!-- ground line -->
  <rect x="64" y="368" width="384" height="10" rx="5" fill="#ffffff" opacity="0.85"/>
  <!-- motion arrow -->
  <g fill="#ffd23f">
    <rect x="96" y="320" width="220" height="18" rx="9"/>
    <path d="M300 290 l60 39 l-60 39 z"/>
  </g>
  <!-- simple running figure -->
  <g fill="#ffffff">
    <circle cx="236" cy="150" r="34"/>
    <rect x="222" y="186" width="28" height="112" rx="14"/>
    <!-- arms -->
    <rect x="180" y="210" width="74" height="22" rx="11" transform="rotate(20 217 221)"/>
    <rect x="226" y="200" width="74" height="22" rx="11" transform="rotate(-25 263 211)"/>
    <!-- legs -->
    <rect x="210" y="288" width="24" height="86" rx="12" transform="rotate(18 222 331)"/>
    <rect x="238" y="288" width="24" height="86" rx="12" transform="rotate(-22 250 331)"/>
  </g>
</svg>
